<?xml version="1.0" standalone="no"?>
<!DOCTYPE svg PUBLIC "-//W3C//DTD SVG 20010904//EN"
 "http://www.w3.org/TR/2001/REC-SVG-20010904/DTD/svg10.dtd">
<svg version="1.0" xmlns="http://www.w3.org/2000/svg"
 width="300.000000pt" height="375.000000pt" viewBox="0 0 300.000000 375.000000"
 preserveAspectRatio="xMidYMid meet">
<metadata>
Created by potrace 1.10, written by Peter Selinger 2001-2011
</metadata>
<g transform="translate(0.000000,375.000000) scale(0.100000,-0.100000)"
fill="#e31818" stroke="none">
<path d="M1921 3391 c-38 -13 -70 -35 -104 -70 -27 -28 -53 -49 -57 -46 -5 3
-11 1 -15 -5 -10 -17 27 -11 48 8 14 13 41 18 107 20 103 4 209 -20 303 -70
68 -36 147 -103 147 -124 0 -8 19 -32 42 -54 l42 -39 18 27 c26 38 58 160 40
148 -5 -3 -13 -24 -17 -47 -7 -40 -16 -46 -19 -12 -4 49 -107 198 -131 189 -7
-2 -15 3 -18 13 -2 11 -32 29 -73 46 -93 38 -232 45 -313 16z m219 -5 c0 -3
-5 -8 -12 -12 -7 -4 -8 -3 -4 4 7 12 16 16 16 8z m133 -51 c-3 -9 -8 -14 -10
-11 -3 3 -2 9 2 15 9 16 15 13 8 -4z"/>
<path d="M1810 3229 c-17 -31 8 -60 87 -101 92 -48 146 -65 247 -78 98 -12
126 -4 126 35 0 65 -233 165 -386 165 -54 0 -65 -3 -74 -21z m158 -51 c-7 -20
-48 -23 -48 -4 0 11 9 16 26 16 16 0 24 -5 22 -12z"/>
<path d="M1704 3158 c3 -13 11 -48 18 -78 18 -81 17 -298 -2 -310 -12 -8 -10
-9 9 -8 17 2 28 -4 36 -20 16 -30 28 -41 19 -17 -6 16 -4 18 6 8 11 -10 10
-16 -4 -32 -11 -12 -16 -27 -12 -37 5 -13 15 -4 47 40 42 58 58 67 79 41 7 -8
24 -15 39 -15 l26 1 -24 20 -24 20 21 21 c21 21 22 21 42 3 21 -19 27 -50 10
-60 -6 -3 1 -22 15 -43 33 -50 42 -97 20 -105 -12 -5 -15 -14 -10 -40 l6 -33
-85 2 c-92 1 -107 8 -126 54 -12 29 -40 49 -40 28 0 -6 13 -32 30 -59 30 -49
27 -66 -9 -54 -23 7 -71 67 -71 89 0 8 7 19 16 24 13 7 7 15 -33 44 -84 61
-155 87 -180 66 -18 -15 -17 -22 13 -57 23 -28 31 -31 60 -25 27 5 34 3 32 -7
-2 -8 4 -13 15 -13 10 1 17 -5 17 -17 0 -10 38 -58 85 -108 l85 -89 -52 -47
c-118 -104 -166 -106 -216 -6 -35 70 -55 93 -75 86 -8 -4 -24 9 -40 34 -48 72
-148 141 -267 183 -79 29 -280 36 -374 14 -142 -34 -275 -129 -361 -258 -36
-55 -72 -79 -135 -90 -8 -2 -17 -6 -20 -9 -3 -4 -26 -16 -52 -28 -26 -11 -50
-25 -53 -31 -3 -5 -15 -10 -25 -10 -10 0 -29 -15 -41 -32 -13 -18 -26 -35 -29
-38 -3 -3 -6 -14 -8 -25 -15 -90 -17 -83 19 -90 19 -3 166 -6 328 -8 329 -2
300 -9 320 78 14 57 56 128 74 122 7 -2 26 -23 42 -46 26 -37 30 -51 30 -109
0 -86 -20 -121 -152 -264 -104 -114 -151 -181 -188 -275 -35 -86 -56 -207 -53
-297 l3 -79 168 -63 169 -63 156 20 c94 11 159 24 164 32 4 6 8 37 8 67 0 75
25 184 54 245 25 50 215 290 223 281 2 -2 0 -21 -6 -43 -18 -64 -13 -84 10
-43 11 19 18 27 14 16 -30 -98 -32 -238 -4 -300 11 -22 10 -29 0 -36 -14 -8
-23 -51 -22 -104 0 -15 -6 -41 -15 -57 -26 -51 -74 -209 -74 -245 0 -22 6 -36
18 -42 26 -14 125 -25 243 -26 73 -1 112 -6 123 -15 9 -7 16 -12 17 -10 1 2 3
33 5 67 3 53 1 63 -11 58 -12 -4 -14 17 -12 144 2 82 6 152 9 155 3 4 4 24 1
45 -4 30 -1 43 16 62 33 34 91 143 91 168 0 36 -23 102 -37 107 -7 3 -13 9
-13 14 0 6 8 5 19 -1 11 -5 36 -10 56 -10 20 0 45 5 56 10 10 6 19 8 19 6 0
-3 -17 -15 -39 -25 -44 -23 -55 -51 -45 -109 10 -55 38 -104 81 -143 38 -34
38 -35 28 -81 -5 -26 -13 -50 -17 -54 -12 -11 -10 -154 2 -154 6 0 10 -16 10
-35 0 -24 6 -39 20 -47 19 -12 19 -13 -3 -36 -18 -20 -22 -34 -20 -82 2 -47 0
-58 -12 -54 -10 4 -17 -7 -25 -36 -6 -23 -9 -48 -6 -56 16 -40 252 -118 356
-117 71 1 219 43 240 68 9 10 9 15 1 15 -19 0 -12 18 10 25 11 4 19 8 17 11
-2 2 -38 -8 -80 -21 -42 -13 -106 -27 -142 -31 l-66 -7 0 32 c0 18 -8 46 -17
64 -9 18 -17 35 -18 39 0 3 -4 10 -9 15 -5 5 -6 3 -2 -4 4 -7 2 -13 -5 -13 -6
0 -9 8 -6 20 3 11 1 20 -4 20 -5 0 -9 -5 -9 -11 0 -5 -5 -7 -11 -3 -23 14 26
28 106 31 82 2 105 14 105 52 0 12 -2 12 -13 -2 -16 -22 -109 -40 -142 -27
-24 9 -25 13 -25 97 0 91 -12 135 -23 91 -4 -12 -7 -54 -7 -92 0 -58 -2 -67
-16 -62 -9 3 -24 6 -33 6 -16 0 -19 14 -25 110 -4 63 -13 122 -21 137 -8 16
-15 39 -15 52 0 20 2 21 15 11 13 -11 15 -9 15 13 0 35 16 43 90 50 78 7 100
14 100 33 0 9 -12 14 -32 15 l-33 1 30 9 c17 5 36 7 43 4 15 -6 16 21 1 31
-33 20 -124 -5 -134 -37 -6 -18 -11 -16 -56 22 -27 22 -49 47 -49 54 0 7 -10
25 -22 41 -13 15 -17 25 -10 20 8 -5 12 2 12 26 0 52 22 74 97 97 38 11 86 31
108 44 l40 23 -4 59 c-2 33 -7 62 -11 65 -4 3 -12 15 -19 28 -18 33 -30 27
-24 -13 5 -30 3 -35 -15 -35 -11 0 -27 12 -37 26 -18 28 -70 54 -110 54 -23 0
-25 4 -25 40 0 39 1 40 38 41 38 1 37 3 -11 13 -37 9 -25 26 19 26 24 0 34 5
34 15 0 8 7 15 16 15 8 0 13 4 9 10 -3 5 1 24 8 42 21 49 31 97 16 78 -9 -12
-10 -11 -6 8 9 39 -32 56 -142 60 l-96 4 0 114 c0 73 -4 117 -11 122 -6 4 -16
17 -22 28 -10 19 -8 23 17 34 35 14 65 14 161 1 41 -5 78 -7 82 -5 4 3 7 24 7
47 -1 23 -3 34 -6 24 -4 -14 -11 -17 -26 -13 -12 3 -31 6 -42 7 -11 0 -14 3
-8 6 10 3 10 10 2 25 -9 16 -7 20 10 25 12 3 21 9 21 14 0 13 38 11 42 -3 2
-6 33 17 69 52 47 46 65 59 67 47 5 -24 19 -21 26 6 10 38 7 57 -10 57 -10 0
-14 5 -10 15 4 13 2 13 -14 5 -10 -5 -22 -15 -25 -20 -3 -6 -11 -10 -18 -10
-6 0 7 19 28 42 l40 41 -41 -32 c-43 -33 -88 -91 -118 -149 -24 -46 -28 -36
-10 19 9 27 35 66 62 95 56 59 186 164 203 164 6 0 0 9 -14 20 -14 11 -30 20
-36 20 -28 0 -62 25 -58 42 4 14 2 16 -13 8 -10 -6 -49 -10 -86 -10 -86 0 -80
-7 12 -13 39 -2 81 -10 94 -17 23 -12 23 -13 5 -26 -32 -24 -152 -12 -215 21
-14 7 -48 17 -76 23 -28 6 -74 23 -103 37 -29 15 -58 24 -66 21 -20 -7 -78 35
-94 69 -22 47 -55 62 -47 23z m106 -382 c0 -2 -7 -7 -16 -10 -8 -3 -12 -2 -9
4 6 10 25 14 25 6z m10 -51 c0 -5 -5 -3 -10 5 -5 8 -10 20 -10 25 0 6 5 3 10
-5 5 -8 10 -19 10 -25z m230 -165 c0 -5 -7 -10 -16 -10 -8 0 -12 5 -9 10 3 6
10 10 16 10 5 0 9 -4 9 -10z m-175 -80 c-3 -5 -13 -10 -21 -10 -8 0 -14 5 -14
10 0 6 9 10 21 10 11 0 17 -4 14 -10z m5 -111 c0 -12 -23 -80 -52 -153 -35
-88 -53 -146 -53 -176 0 -33 -4 -45 -17 -48 -14 -3 -15 3 -11 40 3 24 9 45 13
48 18 14 41 123 35 168 -5 40 -2 55 16 88 13 21 28 42 34 46 19 14 35 8 35
-13z m-965 -99 c-28 -12 -57 -12 -50 0 3 6 21 10 38 9 27 0 29 -2 12 -9z
m1130 -111 c20 -5 9 -6 -30 -2 -33 3 -62 7 -64 9 -8 7 63 2 94 -7z m-420 -9
c-3 -5 -13 -10 -21 -10 -8 0 -14 5 -14 10 0 6 9 10 21 10 11 0 17 -4 14 -10z
m290 3 c-16 -3 -45 -19 -63 -36 -29 -27 -33 -37 -28 -66 3 -19 11 -38 18 -43
7 -4 47 -8 88 -8 41 -1 93 -5 115 -10 27 -6 -2 -7 -90 -4 -71 3 -133 9 -136
12 -4 4 -10 25 -14 48 -6 38 -4 43 34 77 31 28 49 37 74 36 l32 -2 -30 -4z
m182 -10 c-4 -3 -10 -3 -14 0 -3 4 0 7 7 7 7 0 10 -3 7 -7z m-9 -34 c25 -10
28 -26 10 -64 -10 -23 -16 -25 -52 -21 -23 3 -71 8 -108 11 -75 7 -93 28 -54
64 30 28 140 33 204 10z m-475 4 c-20 -7 -15 -23 5 -17 13 4 13 3 -3 -7 -19
-12 -19 -12 0 -20 17 -7 18 -8 3 -8 -10 -1 -18 -5 -18 -11 0 -5 8 -10 18 -11
10 0 12 -3 5 -6 -18 -7 -16 -23 3 -23 10 0 14 -6 11 -14 -6 -15 38 -40 54 -31
5 4 9 -5 9 -19 0 -25 -3 -26 -52 -27 -33 0 -46 -3 -35 -8 17 -6 14 -13 -25
-58 -23 -29 -45 -48 -46 -42 -2 5 -9 6 -14 2 -7 -4 -9 1 -5 13 33 104 47 168
47 220 0 62 6 72 40 72 10 0 11 -1 3 -5z m514 -120 c-4 -3 -7 0 -7 7 0 7 3 10
7 7 3 -4 3 -10 0 -14z m-390 -55 c-3 -7 -5 -2 -5 12 0 14 2 19 5 13 2 -7 2
-19 0 -25z m173 7 c0 -21 -5 -25 -30 -25 -25 0 -30 4 -30 25 0 21 5 25 30 25
25 0 30 -4 30 -25z m100 -1 c0 -8 -4 -14 -9 -14 -5 0 -16 -3 -25 -6 -12 -5
-16 0 -16 19 0 20 4 24 25 19 14 -2 25 -11 25 -18z m-60 -4 c0 -5 -4 -10 -10
-10 -5 0 -10 5 -10 10 0 6 5 10 10 10 6 0 10 -4 10 -10z m80 -75 c5 -38 7 -40
50 -47 33 -6 54 -17 78 -43 18 -19 39 -35 47 -35 8 0 15 -4 15 -10 0 -20 -45
-9 -75 19 -38 36 -117 51 -272 51 l-110 0 5 26 c2 14 14 29 27 34 12 5 25 15
28 24 6 16 60 24 152 22 l50 -1 5 -40z m-58 -102 c-40 -2 -103 -2 -140 0 -37
2 -4 3 73 3 77 0 107 -2 67 -3z m146 -2 c18 -11 -87 -71 -136 -77 -37 -4 -36
-4 28 40 66 46 85 52 108 37z m-358 -32 l25 -20 -32 16 c-18 8 -33 18 -33 20
0 10 16 4 40 -16z m65 -39 c3 -5 4 -10 1 -10 -3 0 -8 5 -11 10 -3 6 -4 10 -1
10 3 0 8 -4 11 -10z m339 -37 c7 -17 -12 -36 -26 -27 -4 3 -8 14 -8 25 0 23
25 25 34 2z m-508 -83 c16 -5 48 -14 72 -20 34 -9 46 -18 56 -42 23 -55 -10
-158 -51 -158 -18 0 -102 44 -130 69 -28 24 -30 75 -6 126 19 39 18 39 59 25z
m-139 -257 c-4 -3 -10 -3 -14 0 -3 4 0 7 7 7 7 0 10 -3 7 -7z m688 -3 c-3 -5
-12 -10 -18 -10 -7 0 -6 4 3 10 19 12 23 12 15 0z m-618 -6 c-3 -3 -12 -4 -19
-1 -8 3 -5 6 6 6 11 1 17 -2 13 -5z m60 -11 c-4 -3 -10 -3 -14 0 -3 4 0 7 7 7
7 0 10 -3 7 -7z m393 -30 c-1 -27 -1 -27 -15 -9 -19 25 -19 36 0 36 10 0 15
-10 15 -27z m-333 -5 c-3 -8 -6 -5 -6 6 -1 11 2 17 5 13 3 -3 4 -12 1 -19z
m-9 -20 c7 -7 12 -39 12 -72 0 -61 -26 -265 -35 -274 -2 -2 -11 -2 -20 1 -11
5 -15 21 -16 59 0 29 -4 76 -9 103 -6 42 -8 31 -9 -65 -2 -90 -5 -110 -13 -93
-6 12 -26 27 -44 33 -25 9 -34 17 -34 34 0 34 -21 55 -58 58 -23 2 -31 6 -27
16 3 7 5 17 5 22 0 4 18 10 39 14 33 5 40 11 45 33 3 16 10 54 16 86 l11 57
63 0 c35 0 67 -5 74 -12z m29 -365 c-4 -3 -7 0 -7 7 0 7 3 10 7 7 3 -4 3 -10
0 -14z m340 -20 c-4 -3 -7 0 -7 7 0 7 3 10 7 7 3 -4 3 -10 0 -14z"/>
<path d="M1660 3140 c0 -7 3 -10 7 -7 3 4 3 10 0 14 -4 3 -7 0 -7 -7z"/>
<path d="M2003 3043 c4 -3 10 -3 14 0 3 4 0 7 -7 7 -7 0 -10 -3 -7 -7z"/>
<path d="M2043 3033 c4 -3 10 -3 14 0 3 4 0 7 -7 7 -7 0 -10 -3 -7 -7z"/>
<path d="M2088 3023 c7 -3 16 -2 19 1 4 3 -2 6 -13 5 -11 0 -14 -3 -6 -6z"/>
<path d="M1690 2940 c0 -13 -4 -19 -11 -14 -22 13 -3 -19 20 -34 22 -15 22
-15 19 23 -3 41 -28 63 -28 25z"/>
<path d="M2448 2845 c-21 -44 -24 -55 -11 -55 17 0 73 56 73 74 0 12 -20 36
-30 36 -3 0 -17 -25 -32 -55z"/>
<path d="M2390 2790 c0 -7 3 -10 7 -7 3 4 3 10 0 14 -4 3 -7 0 -7 -7z"/>
<path d="M1720 2705 c0 -16 16 -20 24 -6 3 5 -1 11 -9 15 -9 3 -15 0 -15 -9z"/>
<path d="M1526 2595 c-57 -20 -71 -38 -67 -87 2 -27 13 -23 89 34 46 34 66 55
59 60 -17 11 -36 9 -81 -7z"/>
<path d="M2237 2530 c31 -18 50 -44 49 -65 -2 -19 -45 -67 -56 -60 -5 3 -10
20 -10 36 0 21 6 32 23 39 l22 9 -23 0 c-30 1 -47 -35 -33 -72 6 -15 15 -27
21 -27 6 0 8 -5 5 -10 -4 -6 -11 -7 -17 -4 -8 5 -9 -9 -5 -45 3 -28 2 -49 -2
-47 -10 6 -36 -143 -27 -151 3 -4 6 -1 6 5 0 21 26 13 55 -18 27 -28 53 -41
40 -20 -3 6 -2 10 4 10 5 0 13 -5 16 -10 3 -6 25 -8 48 -5 23 3 36 2 30 -1
-16 -7 -17 -43 -3 -80 25 -64 148 -177 189 -172 24 3 25 1 23 -38 -2 -22 4
-60 14 -83 13 -34 21 -42 36 -38 15 4 18 2 14 -10 -4 -9 1 -36 10 -60 21 -56
49 -56 49 -1 0 20 5 42 12 49 12 12 18 9 79 -36 26 -19 38 10 19 43 -31 52 -4
75 52 44 33 -18 53 -15 53 9 0 11 -4 18 -9 15 -5 -3 -11 0 -14 8 -3 8 -22 22
-41 31 -23 11 -33 22 -29 31 3 8 0 21 -7 29 -7 9 -9 26 -5 45 6 27 11 31 30
26 29 -7 57 20 30 30 -9 4 -21 2 -28 -5 -6 -6 -20 -11 -30 -11 -10 0 -31 -9
-46 -19 -23 -17 -29 -17 -46 -5 -24 18 -63 17 -95 -1 -36 -20 -40 -19 -40 15
0 25 4 30 35 36 21 4 41 2 49 -5 16 -14 26 -4 26 24 0 54 -42 52 -125 -5 -31
-22 -46 -27 -51 -18 -4 6 -2 14 4 16 6 2 27 16 46 31 20 16 49 34 66 41 16 7
30 15 30 19 0 4 -16 32 -36 64 -26 42 -41 57 -58 57 -24 0 -109 -41 -138 -67
-42 -38 -7 12 48 70 17 17 10 23 -19 18 -5 -1 -6 3 -2 9 3 6 10 8 15 5 4 -3 7
24 6 58 -1 50 -7 72 -26 100 -29 42 -90 80 -97 60 -3 -7 -13 -23 -23 -35 -15
-19 -20 -20 -34 -9 -15 12 -15 16 -2 30 8 9 19 28 25 43 9 24 6 32 -21 63 -27
29 -38 35 -72 35 l-41 0 32 -20z m78 -210 c-21 -22 -41 -37 -44 -35 -6 7 60
75 73 75 6 0 -7 -18 -29 -40z m85 -5 c0 -10 -83 -95 -92 -95 -5 0 10 22 34 50
39 44 58 59 58 45z m0 -90 c-24 -25 -46 -45 -48 -45 -8 0 74 89 83 90 5 0 -11
-20 -35 -45z m169 -118 c-2 -2 -22 -14 -44 -26 l-40 -23 28 26 c15 14 35 26
44 26 9 0 14 -1 12 -3z m7 -46 c-3 -5 -23 -19 -43 -30 l-38 -21 35 30 c33 29
57 40 46 21z m129 -201 c3 -5 4 -10 1 -10 -3 0 -8 5 -11 10 -3 6 -4 10 -1 10
3 0 8 -4 11 -10z m-45 -30 c6 -11 8 -20 6 -20 -3 0 -10 9 -16 20 -6 11 -8 20
-6 20 3 0 10 -9 16 -20z m25 10 c3 -5 4 -10 1 -10 -3 0 -8 5 -11 10 -3 6 -4
10 -1 10 3 0 8 -4 11 -10z m45 -20 c-19 -17 -38 -30 -44 -30 -9 0 64 58 74 59
3 0 -11 -13 -30 -29z m40 -5 c-25 -27 -97 -65 -121 -65 -8 1 9 12 37 25 28 14
59 34 69 45 10 11 23 20 28 20 6 0 0 -11 -13 -25z m19 -25 c-40 -33 -82 -57
-114 -64 -24 -4 -20 -1 17 18 26 13 62 35 80 49 38 30 53 27 17 -3z m-129 -10
c-8 -5 -19 -10 -25 -10 -5 0 -3 5 5 10 8 5 20 10 25 10 6 0 3 -5 -5 -10z m136
-67 c-7 -7 -26 7 -26 19 0 6 6 6 15 -2 9 -7 13 -15 11 -17z m-94 -49 c-7 -12
-9 -8 -10 18 -1 26 1 30 9 16 6 -11 6 -24 1 -34z m-35 -21 c-4 -3 -7 0 -7 7 0
7 3 10 7 7 3 -4 3 -10 0 -14z"/>
<path d="M2174 2529 c-3 -5 1 -20 8 -33 13 -24 13 -24 36 -5 13 10 21 23 18
28 -8 12 -55 20 -62 10z"/>
<path d="M2191 1134 c0 -11 3 -14 6 -6 3 7 2 16 -1 19 -3 4 -6 -2 -5 -13z"/>
<path d="M611 973 c-41 -8 -71 -34 -102 -87 -23 -40 -29 -63 -29 -109 0 -80
19 -119 81 -164 l52 -37 -27 -9 c-15 -5 -25 -14 -24 -19 4 -11 156 -107 230
-144 57 -29 144 -32 248 -8 65 14 92 31 96 58 1 6 16 34 33 61 39 63 53 134
39 199 -18 87 -103 156 -191 156 -14 0 -46 9 -72 20 -150 64 -273 95 -334 83z"/>
<path d="M1655 793 c3 -7 -1 -36 -10 -65 -17 -58 -18 -69 -7 -67 21 4 23 -3 7
-21 -10 -11 -29 -20 -42 -20 -20 0 -23 5 -23 34 0 19 -6 37 -12 39 -10 4 -10
6 0 6 15 1 16 51 1 51 -5 0 -7 5 -4 10 3 6 -2 10 -12 11 -44 1 -113 7 -175 14
l-67 8 -3 -39 c-3 -34 -6 -39 -28 -39 -14 0 -28 5 -32 10 -5 6 -8 4 -9 -5 -5
-53 -4 -72 7 -81 19 -15 187 -49 282 -55 81 -6 91 -5 137 19 28 15 57 32 65
39 22 18 50 60 50 75 0 13 -69 53 -91 53 -6 0 -18 8 -26 18 -8 9 -12 11 -8 5z"/>
</g>
</svg>
