<?xml version="1.0" standalone="no"?>
<!DOCTYPE svg PUBLIC "-//W3C//DTD SVG 20010904//EN"
 "http://www.w3.org/TR/2001/REC-SVG-20010904/DTD/svg10.dtd">
<svg version="1.0" xmlns="http://www.w3.org/2000/svg"
 width="300.000000pt" height="296.000000pt" viewBox="0 0 300.000000 296.000000"
 preserveAspectRatio="xMidYMid meet">
<metadata>
Created by potrace 1.10, written by Peter Selinger 2001-2011
</metadata>
<g transform="translate(0.000000,296.000000) scale(0.100000,-0.100000)"
fill="#f01515" stroke="none">
<path d="M1400 2838 c-50 -17 -133 -104 -148 -154 -69 -233 185 -423 377 -284
145 105 137 327 -14 416 -53 31 -156 41 -215 22z m158 -24 c113 -37 174 -164
139 -289 -3 -11 -6 -23 -6 -27 -2 -18 -80 -87 -115 -102 -130 -54 -304 40
-307 166 -1 21 -1 48 -2 61 -2 79 64 166 148 191 65 19 83 19 143 0z"/>
<path d="M1347 2698 c2 -5 -4 -8 -14 -8 -32 0 -43 -21 -43 -86 0 -58 2 -64 31
-87 26 -20 37 -23 62 -16 18 5 37 4 48 -2 10 -5 33 -7 51 -4 37 7 98 9 113 4
6 -2 24 2 42 8 38 14 46 35 41 113 -3 47 -7 57 -28 67 -27 13 -311 23 -303 11z
m218 -60 l-79 -40 -81 40 -80 41 160 0 160 0 -80 -41z m-137 -33 c4 -3 -103
-65 -112 -65 -3 0 -6 29 -6 65 l0 66 58 -32 c31 -17 58 -33 60 -34z m229 -61
c-2 -2 -29 10 -61 27 l-58 31 59 33 58 32 3 -60 c2 -32 1 -61 -1 -63z m-69 13
c28 -15 52 -28 52 -30 0 -1 -69 -2 -154 -2 -85 0 -153 2 -151 3 2 2 27 16 56
32 67 35 123 34 197 -3z"/>
<path d="M595 2516 c-59 -27 -118 -88 -135 -141 -8 -23 -11 -65 -8 -107 6 -81
36 -133 103 -180 162 -114 385 3 385 202 0 105 -49 180 -145 226 -66 31 -134
31 -200 0z m201 -22 c41 -19 91 -75 111 -122 32 -77 -1 -200 -69 -258 -50 -41
-140 -59 -204 -39 -98 29 -154 101 -161 205 -4 49 -1 70 11 85 15 19 15 18 16
-17 0 -30 6 -42 35 -64 25 -19 33 -30 25 -38 -16 -16 -12 -72 9 -97 16 -21 26
-23 82 -21 73 3 101 22 103 69 1 27 4 28 48 29 61 1 88 24 88 74 0 50 -17 62
-95 62 -61 1 -65 2 -65 24 0 40 -38 56 -125 52 -41 -2 -75 0 -75 3 0 10 33 35
68 53 17 9 32 13 32 9 0 -4 5 -2 12 5 15 15 109 7 154 -14z m-97 -88 c7 -8 11
-34 9 -58 l-3 -43 -63 -3 c-51 -2 -63 -6 -58 -17 3 -8 1 -15 -4 -15 -6 0 -10
6 -10 14 0 8 -10 16 -22 18 -19 2 -24 10 -26 46 -2 24 2 50 9 58 16 20 152 20
168 0z m169 -108 c2 -21 -1 -38 -7 -38 -5 0 -17 -7 -25 -16 -13 -12 -16 -13
-16 -1 0 10 -12 13 -42 13 -40 -1 -43 1 -46 27 -6 52 2 58 70 55 l63 -3 3 -37z
m-140 -95 c3 -38 1 -43 -23 -49 -14 -3 -37 -4 -50 -2 -18 4 -25 1 -25 -11 -1
-13 -3 -13 -15 3 -8 11 -15 16 -15 12 0 -5 -7 -3 -15 4 -15 13 -21 71 -8 84 4
4 39 5 78 4 l70 -3 3 -42z"/>
<path d="M2180 2497 c-52 -17 -136 -105 -150 -158 -31 -114 12 -228 108 -285
63 -38 115 -48 181 -33 124 26 211 150 194 277 -9 64 -60 141 -117 176 -39 25
-61 31 -115 33 -36 1 -82 -3 -101 -10z m160 -22 c33 -13 30 -14 -67 -14 -57
-1 -103 1 -103 4 0 8 64 23 100 23 19 0 51 -6 70 -13z m-209 -44 c-14 -26 -14
-311 1 -328 21 -26 1 -23 -26 4 -84 84 -85 223 -3 311 35 37 42 40 28 13z
m287 1 c39 -34 72 -111 72 -169 0 -60 -16 -102 -58 -152 l-27 -33 3 172 c2
122 0 175 -9 186 -16 20 -6 18 19 -4z m-40 -4 c13 -13 18 -291 6 -322 -5 -13
-25 -16 -113 -16 -70 0 -111 4 -119 12 -8 8 -12 59 -12 163 0 104 4 155 12
163 8 8 48 12 113 12 65 0 105 -4 113 -12z m-115 -359 c53 -1 97 -5 97 -10 0
-5 -1 -9 -2 -9 -85 -16 -188 -5 -204 22 -4 6 -3 8 3 5 5 -3 53 -7 106 -8z"/>
<path d="M2162 2263 l3 -158 100 0 100 0 3 158 3 157 -106 0 -106 0 3 -157z
m193 127 c-6 -10 -173 -5 -183 5 -3 3 38 5 92 5 60 0 95 -4 91 -10z m-80 -30
c4 -6 -15 -10 -50 -10 -35 0 -54 4 -50 10 3 6 26 10 50 10 24 0 47 -4 50 -10z
m63 -7 c-10 -2 -26 -2 -35 0 -10 3 -2 5 17 5 19 0 27 -2 18 -5z m22 -33 c0 -6
-39 -10 -96 -10 -61 0 -93 4 -89 10 3 6 46 10 96 10 53 0 89 -4 89 -10z m-30
-50 c0 -6 -31 -10 -74 -10 -41 0 -78 5 -81 10 -4 6 23 10 74 10 47 0 81 -4 81
-10z m-12 -47 c-26 -2 -71 -2 -100 0 -29 2 -8 3 47 3 55 0 79 -1 53 -3z m38
-45 c3 -4 -38 -8 -91 -8 -61 0 -94 4 -90 10 7 12 174 10 181 -2z m-1 -38 c4
-6 -28 -10 -90 -10 -62 0 -94 4 -90 10 3 6 44 10 90 10 46 0 87 -4 90 -10z"/>
<path d="M914 2051 c-52 -32 -55 -51 -52 -349 l3 -272 33 -32 32 -33 521 -3
c573 -3 573 -3 604 59 22 41 22 547 1 588 -33 63 -13 61 -588 61 -494 0 -525
-1 -554 -19z m62 -16 c-11 -8 -23 -15 -26 -15 -4 0 -16 -17 -28 -39 -20 -35
-22 -53 -22 -177 0 -75 -2 -135 -5 -133 -2 3 -5 74 -6 158 -1 164 7 192 54
211 37 15 55 12 33 -5z m1016 3 c33 -16 60 -60 52 -83 -6 -15 -9 -14 -20 6 -7
13 -10 27 -8 30 2 4 -19 19 -48 33 -41 21 -47 26 -27 26 14 0 37 -6 51 -12z
m-39 -29 c55 -28 57 -36 57 -281 0 -149 -4 -236 -11 -252 -22 -48 -60 -56
-259 -56 l-182 0 36 41 c41 49 117 198 119 237 l2 27 -247 3 c-254 2 -254 3
-249 -35 1 -6 -9 -13 -21 -15 -18 -2 -24 -10 -26 -40 -2 -29 3 -43 28 -72 18
-20 48 -41 68 -47 25 -7 48 -26 70 -55 l33 -44 -181 0 c-275 0 -270 -6 -270
307 0 190 2 211 20 241 11 18 30 37 43 42 34 13 943 13 970 -1z m94 -151 c-3
-7 -5 -2 -5 12 0 14 2 19 5 13 2 -7 2 -19 0 -25z m0 -185 c-2 -32 -3 -6 -3 57
0 63 1 89 3 58 2 -32 2 -84 0 -115z m-363 19 c8 -13 -44 -122 -91 -190 -46
-67 -50 -81 -31 -100 9 -9 9 -12 -2 -13 -63 -2 -435 3 -439 6 -2 3 54 5 126 5
105 0 132 3 136 14 6 16 -33 80 -64 107 -11 9 -19 25 -19 35 0 11 -14 43 -30
73 -17 30 -30 58 -30 63 0 10 437 11 444 0z m-426 -92 c16 -33 26 -60 24 -60
-14 0 -75 55 -82 74 -8 21 4 46 21 46 4 0 21 -27 37 -60z m-359 -27 c-1 -37
-4 -51 -9 -38 -7 19 -2 95 6 95 2 0 3 -26 3 -57z m1146 -95 c-8 -55 -39 -88
-79 -87 -28 0 -29 1 -12 12 35 22 68 60 78 88 14 42 20 36 13 -13z m-1092 -55
c14 -12 36 -23 49 -26 14 -3 7 -5 -18 -6 -61 -2 -108 49 -96 104 4 16 7 14 22
-15 10 -19 29 -45 43 -57z m140 -30 c-13 -2 -33 -2 -45 0 -13 2 -3 4 22 4 25
0 35 -2 23 -4z m730 0 c-46 -2 -120 -2 -165 0 -46 1 -9 3 82 3 91 0 128 -2 83
-3z"/>
<path d="M1690 1831 c0 -5 13 -12 29 -16 40 -9 80 -48 87 -85 9 -41 24 -48 24
-11 0 17 -11 42 -27 62 -35 41 -113 76 -113 50z"/>
<path d="M1680 1790 c0 -5 11 -10 24 -10 26 0 76 -50 76 -76 0 -8 5 -14 11
-14 12 0 4 35 -18 68 -20 33 -93 58 -93 32z"/>
<path d="M1686 1761 c-3 -4 5 -13 18 -19 14 -6 27 -20 31 -31 6 -21 25 -29 25
-12 0 32 -61 84 -74 62z"/>
<path d="M1872 1720 c0 -14 2 -19 5 -12 2 6 2 18 0 25 -3 6 -5 1 -5 -13z"/>
<path d="M1911 1724 c0 -11 3 -14 6 -6 3 7 2 16 -1 19 -3 4 -6 -2 -5 -13z"/>
<path d="M272 1747 c-46 -14 -117 -80 -141 -130 -31 -64 -29 -148 7 -218 87
-172 321 -182 429 -18 36 54 44 157 18 224 -20 54 -98 127 -153 143 -47 14
-114 14 -160 -1z m182 -32 c43 -18 94 -71 101 -106 4 -16 11 -31 16 -34 31
-20 -10 -184 -58 -227 -48 -44 -144 -69 -209 -54 -33 7 -99 43 -115 62 -12 15
-12 18 4 28 10 6 54 37 98 69 74 54 83 58 110 48 76 -26 154 69 113 138 -51
87 -175 67 -190 -30 -6 -34 -16 -46 -80 -94 -40 -31 -77 -63 -82 -72 -7 -12
-11 -13 -17 -3 -26 43 -4 173 37 217 72 77 174 99 272 58z m-4 -45 c19 0 50
-45 50 -74 0 -58 -71 -97 -120 -66 -10 6 -21 4 -35 -9 -44 -39 -168 -120 -177
-115 -14 9 8 30 99 96 68 49 82 64 78 82 -10 42 47 104 83 91 8 -3 18 -5 22
-5z"/>
<path d="M374 1626 c-13 -22 -14 -29 -2 -53 25 -53 108 -37 108 22 0 55 -75
76 -106 31z m67 -6 c23 -13 24 -26 5 -46 -20 -19 -33 -18 -46 7 -9 15 -8 24 1
35 14 17 15 17 40 4z"/>
<path d="M2475 1696 c-208 -98 -187 -398 33 -462 210 -62 391 163 287 354 -64
117 -202 164 -320 108z m175 -13 c8 -3 21 -7 29 -9 22 -4 81 -66 102 -106 25
-48 25 -139 0 -193 -37 -82 -120 -129 -216 -123 -77 5 -127 30 -165 81 -77
104 -58 239 43 321 48 38 146 52 207 29z"/>
<path d="M2508 1605 c-76 -40 -87 -62 -83 -158 2 -45 4 -85 4 -88 2 -13 86
-41 131 -44 57 -4 147 21 160 45 5 10 10 51 11 92 2 93 -14 122 -88 154 -66
29 -76 29 -135 -1z m127 -17 l57 -22 -53 -24 c-57 -25 -57 -25 -149 10 -24 10
-24 11 25 33 63 29 53 29 120 3z m-130 -73 l60 -24 3 -80 c2 -45 0 -81 -4 -81
-4 0 -32 9 -63 20 l-56 21 0 84 c0 47 0 85 0 85 0 0 27 -11 60 -25z m205 -58
l0 -83 -53 -22 c-29 -12 -56 -22 -60 -22 -4 0 -7 36 -7 79 l0 80 53 25 c28 13
55 25 60 25 4 1 7 -36 7 -82z"/>
<path d="M928 1330 c-72 -22 -111 -55 -170 -144 -69 -105 -77 -129 -53 -156
18 -20 36 -20 760 -20 706 0 743 1 758 18 10 10 17 27 17 38 0 29 -112 197
-148 222 -72 52 -77 52 -626 51 -281 0 -523 -4 -538 -9z m1104 -34 c34 -15
128 -108 128 -128 0 -5 11 -24 25 -42 29 -39 33 -83 8 -89 -29 -7 -421 -9
-453 -2 -19 4 -27 11 -24 20 9 22 -27 85 -56 100 -21 11 -72 15 -195 16 -152
1 -169 0 -193 -18 -40 -30 -67 -80 -53 -97 8 -10 9 -16 2 -21 -17 -10 -475 -3
-488 8 -22 17 -15 41 36 118 52 80 79 108 126 132 44 23 1083 25 1137 3z
m-365 -182 c19 -20 32 -41 30 -48 -4 -11 -427 -22 -455 -11 -12 4 -11 10 3 33
38 61 43 62 222 62 l166 0 34 -36z"/>
<path d="M600 961 c-150 -46 -223 -211 -154 -349 78 -156 281 -187 400 -60 51
53 68 95 68 168 0 109 -63 199 -165 235 -44 16 -108 18 -149 6z m125 -22 c55
-14 122 -70 146 -123 23 -52 25 -146 3 -189 -71 -140 -258 -173 -366 -64 -47
47 -62 86 -62 157 0 109 60 188 164 216 58 16 62 16 115 3z"/>
<path d="M541 889 c-14 -24 -14 -64 1 -89 10 -15 9 -22 -6 -39 -24 -27 -15
-64 28 -105 18 -17 35 -39 39 -48 10 -28 40 -38 68 -24 21 10 26 9 42 -11 10
-13 23 -21 28 -18 5 4 9 2 9 -3 0 -11 32 -12 46 -1 13 11 10 75 -4 92 -7 8 -6
18 4 31 24 34 17 66 -25 108 -22 21 -41 46 -43 55 -5 27 -35 40 -59 25 -17
-11 -24 -11 -37 1 -10 8 -31 21 -48 29 -29 14 -32 14 -43 -3z m62 -26 c10 -3
16 -11 13 -18 -2 -6 0 -18 4 -26 7 -11 15 -9 40 9 30 23 50 22 50 -2 0 -7 -27
-32 -59 -55 -38 -28 -58 -48 -54 -57 5 -15 11 -12 102 58 33 25 42 23 74 -21
l27 -39 -31 -26 c-25 -22 -29 -29 -19 -41 7 -8 16 -13 20 -10 7 4 23 -65 17
-72 -7 -7 -67 22 -65 32 0 5 -2 18 -6 27 -8 17 -10 16 -37 -3 -28 -20 -59 -20
-59 -1 0 5 27 28 60 52 33 24 60 47 60 51 0 21 -21 13 -74 -27 -33 -24 -63
-44 -66 -44 -4 0 -20 19 -36 41 l-29 42 33 27 c28 23 31 29 18 39 -8 7 -20 10
-26 6 -6 -4 -10 9 -10 35 0 36 2 41 18 35 9 -4 25 -10 35 -12z"/>
<path d="M2144 926 c-46 -20 -102 -74 -127 -120 -30 -57 -30 -165 0 -221 27
-51 78 -100 125 -119 46 -20 148 -21 192 -2 47 19 104 73 129 120 30 58 30
165 0 222 -28 53 -91 107 -142 122 -51 16 -138 14 -177 -2z m197 -32 c10 -9
19 -13 19 -9 0 16 52 -40 76 -81 30 -51 35 -154 10 -202 -37 -72 -86 -112
-155 -127 l-34 -7 19 20 c14 15 27 60 42 142 12 67 30 132 39 146 16 25 15 26
-13 54 -29 29 -49 33 -141 31 -32 -1 -51 -8 -75 -30 l-33 -30 18 -30 c10 -17
22 -53 27 -79 21 -119 33 -169 46 -194 18 -32 16 -33 -34 -12 -47 19 -88 58
-114 108 -27 52 -26 151 1 205 24 45 84 101 111 101 10 0 22 5 26 11 10 18
142 4 165 -17z m-21 -64 c0 -6 -35 -10 -85 -10 -50 0 -85 4 -85 10 0 6 35 10
85 10 50 0 85 -4 85 -10z m30 -33 c0 -9 -33 -12 -115 -12 -84 0 -115 3 -115
12 0 9 30 13 115 12 82 0 115 -4 115 -12z m-30 -36 c0 -4 -11 -63 -25 -131
-14 -68 -25 -124 -25 -126 0 -2 -15 -4 -34 -4 l-33 0 -22 103 c-11 56 -24 117
-27 135 l-6 32 86 0 c47 0 86 -4 86 -9z"/>
<path d="M1345 607 c-60 -29 -97 -67 -124 -127 -23 -50 -27 -129 -10 -179 9
-26 14 -29 25 -20 12 10 12 13 0 23 -8 6 -18 23 -21 38 -5 21 -1 33 19 52 31
31 45 32 80 5 30 -23 34 -63 11 -89 -14 -16 -14 -20 1 -47 l17 -30 23 46 c23
44 23 46 5 66 -27 30 -32 65 -15 101 34 71 134 71 168 0 17 -37 12 -72 -16
-103 -19 -20 -19 -23 -4 -45 9 -13 22 -41 28 -63 l11 -40 8 48 c4 27 15 57 24
67 11 13 13 20 5 25 -21 13 -31 55 -19 78 16 29 28 37 60 37 50 0 79 -69 43
-104 -13 -14 -14 -18 -1 -37 18 -24 22 -18 32 39 9 56 -10 132 -46 181 -66 92
-203 127 -304 78z m171 -13 c60 -20 99 -49 124 -91 l19 -32 -31 3 c-18 2 -41
-2 -53 -10 -18 -12 -23 -10 -54 21 -57 59 -140 48 -184 -24 -12 -20 -24 -25
-61 -26 -51 -1 -53 3 -30 46 32 63 80 101 149 119 47 12 71 11 121 -6z m38
-262 c2 -4 -2 -15 -9 -25 -11 -16 -13 -16 -19 -1 -10 25 14 48 28 26z"/>
</g>
</svg>
